<?xml version="1.0" standalone="no"?><svg xmlns:xlink="http://www.w3.org/1999/xlink" xmlns="http://www.w3.org/2000/svg" viewBox="0 0 1000 894.7362195028836" preserveAspectRatio="xMaxYMax slice"><g transform="scale(1.0754041099794274)"><rect x="0" y="0" width="978.8235294117646" height="832" fill="#ffffff"/><rect x="734.1176470588234" y="48.94117647058823" width="48.94117647058823" height="48.94117647058823" fill="#ffffff"/><rect x="293.6470588235294" y="97.88235294117646" width="48.94117647058823" height="48.94117647058823" fill="#ffffff"/><path d="M 293.65 122.35 A 24.47 24.47 0 0 1  318.12 146.82 L 293.65 122.35 A 24.47 24.47 0 0 0 318.12 146.82" fill="#fbf8fb"/><rect x="97.88235294117646" y="146.8235294117647" width="48.94117647058823" height="48.94117647058823" fill="#ffffff"/><path d="M 97.88 171.29 A 24.47 24.47 0 0 1  122.35 195.76 L 97.88 171.29 A 24.47 24.47 0 0 0 122.35 195.76" fill="#ece5f7"/><rect x="440.4705882352941" y="146.8235294117647" width="48.94117647058823" height="48.94117647058823" fill="#ffffff"/><rect x="587.2941176470588" y="146.8235294117647" width="48.94117647058823" height="48.94117647058823" fill="#ffffff"/><path d="M 587.29 146.82 A 24.47 24.47 0 0 1  611.76 171.29 L 587.29 146.82 A 24.47 24.47 0 0 0 611.76 171.29" fill="#fcfbfd"/><path d="M 685.18 146.82 A 48.94 48.94 0 0 1  734.1199999999999 195.76 L 685.18 146.82 A 48.94 48.94 0 0 0 734.1199999999999 195.76" fill="#cdbceb"/><rect x="97.88235294117646" y="195.76470588235293" width="48.94117647058823" height="48.94117647058823" fill="#ffffff"/><path d="M 122.35 220.24 A 24.47 24.47 0 0 1  146.82 244.71 L 122.35 220.24 A 24.47 24.47 0 0 0 146.82 244.71" fill="#fdfcfd"/><path d="M 244.71 244.7 A 48.94 48.94 0 0 1  293.65 195.76 L 244.71 244.7 A 48.94 48.94 0 0 0 293.65 195.76" fill="#fdfcfd"/><rect x="342.5882352941176" y="195.76470588235293" width="48.94117647058823" height="48.94117647058823" fill="#ffffff"/><path d="M 342.59 195.76 A 24.47 24.47 0 0 1  367.05999999999995 220.23 L 342.59 195.76 A 24.47 24.47 0 0 0 367.05999999999995 220.23" fill="#cfbeec"/><path d="M 367.06 220.23 A 24.47 24.47 0 0 1  391.53 195.76 L 367.06 220.23 A 24.47 24.47 0 0 0 391.53 195.76" fill="#f9f5fa"/><path d="M 342.59 220.24 A 24.47 24.47 0 0 1  367.05999999999995 244.71 L 342.59 220.24 A 24.47 24.47 0 0 0 367.05999999999995 244.71" fill="#f9f6fa"/><path d="M 440.47 244.7 A 48.94 48.94 0 0 1  489.41 195.76 L 440.47 244.7 A 48.94 48.94 0 0 0 489.41 195.76" fill="#d3c4ee"/><path d="M 880.94 195.76 A 48.94 48.94 0 0 1  929.8800000000001 244.7 L 880.94 195.76 A 48.94 48.94 0 0 0 929.8800000000001 244.7" fill="#fefdfe"/><rect x="146.8235294117647" y="244.70588235294116" width="48.94117647058823" height="48.94117647058823" fill="#ffffff"/><path d="M 146.82 269.18 A 24.47 24.47 0 0 1  171.29 244.71 L 146.82 269.18 A 24.47 24.47 0 0 0 171.29 244.71" fill="#fefefe"/><path d="M 171.29 269.18 A 24.47 24.47 0 0 1  195.76 244.71 L 171.29 269.18 A 24.47 24.47 0 0 0 195.76 244.71" fill="#f9f6fc"/><rect x="195.76470588235293" y="244.70588235294116" width="48.94117647058823" height="48.94117647058823" fill="#ffffff"/><path d="M 195.76 293.65 A 24.47 24.47 0 0 1  220.23 269.18 L 195.76 293.65 A 24.47 24.47 0 0 0 220.23 269.18" fill="#fdfdfe"/><path d="M 220.24 293.65 A 24.47 24.47 0 0 1  244.71 269.18 L 220.24 293.65 A 24.47 24.47 0 0 0 244.71 269.18" fill="#fbf9fc"/><rect x="342.5882352941176" y="244.70588235294116" width="48.94117647058823" height="48.94117647058823" fill="#ffffff"/><path d="M 342.59 269.18 A 24.47 24.47 0 0 1  367.05999999999995 244.71 L 342.59 269.18 A 24.47 24.47 0 0 0 367.05999999999995 244.71" fill="#fefefe"/><path d="M 367.06 293.65 A 24.47 24.47 0 0 1  391.53 269.18 L 367.06 293.65 A 24.47 24.47 0 0 0 391.53 269.18" fill="#e1d7f3"/><path d="M 489.41 293.65 A 48.94 48.94 0 0 1  538.35 244.71 L 489.41 293.65 A 48.94 48.94 0 0 0 538.35 244.71" fill="#faf7fb"/><rect x="685.1764705882352" y="244.70588235294116" width="48.94117647058823" height="48.94117647058823" fill="#ffffff"/><rect x="783.0588235294117" y="244.70588235294116" width="48.94117647058823" height="48.94117647058823" fill="#ffffff"/><path d="M 807.53 269.18 A 24.47 24.47 0 0 1  832 293.65 L 807.53 269.18 A 24.47 24.47 0 0 0 832 293.65" fill="#d3c3ed"/><rect x="929.8823529411764" y="244.70588235294116" width="48.94117647058823" height="48.94117647058823" fill="#ffffff"/><path d="M 954.35 244.71 A 24.47 24.47 0 0 1  978.82 269.18 L 954.35 244.71 A 24.47 24.47 0 0 0 978.82 269.18" fill="#f9f6fa"/><rect x="0" y="293.6470588235294" width="48.94117647058823" height="48.94117647058823" fill="#ffffff"/><path d="M 0 318.12 A 24.47 24.47 0 0 1  24.47 293.65 L 0 318.12 A 24.47 24.47 0 0 0 24.47 293.65" fill="#c7b4e9"/><path d="M 24.47 293.65 A 24.47 24.47 0 0 1  48.94 318.12 L 24.47 293.65 A 24.47 24.47 0 0 0 48.94 318.12" fill="#fefdfe"/><path d="M 24.47 318.12 A 24.47 24.47 0 0 1  48.94 342.59000000000003 L 24.47 318.12 A 24.47 24.47 0 0 0 48.94 342.59000000000003" fill="#fefdfe"/><path d="M 48.94 293.65 A 48.94 48.94 0 0 1  97.88 342.59 L 48.94 293.65 A 48.94 48.94 0 0 0 97.88 342.59" fill="#fefefe"/><path d="M 244.71 293.65 A 48.94 48.94 0 0 1  293.65 342.59 L 244.71 293.65 A 48.94 48.94 0 0 0 293.65 342.59" fill="#c8b4e9"/><path d="M 293.65 293.65 A 48.94 48.94 0 0 1  342.59 342.59 L 293.65 293.65 A 48.94 48.94 0 0 0 342.59 342.59" fill="#faf8fb"/><rect x="489.4117647058823" y="293.6470588235294" width="48.94117647058823" height="48.94117647058823" fill="#ffffff"/><path d="M 513.88 318.12 A 24.47 24.47 0 0 1  538.35 293.65 L 513.88 318.12 A 24.47 24.47 0 0 0 538.35 293.65" fill="#ebe3f7"/><path d="M 587.29 293.65 A 48.94 48.94 0 0 1  636.23 342.59 L 587.29 293.65 A 48.94 48.94 0 0 0 636.23 342.59" fill="#f9f5fa"/><path d="M 636.24 293.65 A 48.94 48.94 0 0 1  685.1800000000001 342.59 L 636.24 293.65 A 48.94 48.94 0 0 0 685.1800000000001 342.59" fill="#e4daf4"/><path d="M 685.18 342.59 A 48.94 48.94 0 0 1  734.1199999999999 293.65 L 685.18 342.59 A 48.94 48.94 0 0 0 734.1199999999999 293.65" fill="#fefdfe"/><path d="M 880.94 342.59 A 48.94 48.94 0 0 1  929.8800000000001 293.65 L 880.94 342.59 A 48.94 48.94 0 0 0 929.8800000000001 293.65" fill="#f9f7fd"/><rect x="97.88235294117646" y="342.5882352941176" width="48.94117647058823" height="48.94117647058823" fill="#ffffff"/><path d="M 97.88 342.59 A 24.47 24.47 0 0 1  122.35 367.05999999999995 L 97.88 342.59 A 24.47 24.47 0 0 0 122.35 367.05999999999995" fill="#ede6f8"/><path d="M 97.88 391.53 A 24.47 24.47 0 0 1  122.35 367.06 L 97.88 391.53 A 24.47 24.47 0 0 0 122.35 367.06" fill="#d4c4ee"/><path d="M 122.35 367.06 A 24.47 24.47 0 0 1  146.82 391.53 L 122.35 367.06 A 24.47 24.47 0 0 0 146.82 391.53" fill="#f8f4f9"/><rect x="146.8235294117647" y="342.5882352941176" width="48.94117647058823" height="48.94117647058823" fill="#ffffff"/><path d="M 146.82 342.59 A 24.47 24.47 0 0 1  171.29 367.05999999999995 L 146.82 342.59 A 24.47 24.47 0 0 0 171.29 367.05999999999995" fill="#fbf9fc"/><path d="M 171.29 342.59 A 24.47 24.47 0 0 1  195.76 367.05999999999995 L 171.29 342.59 A 24.47 24.47 0 0 0 195.76 367.05999999999995" fill="#ffffff"/><path d="M 195.76 342.59 A 48.94 48.94 0 0 1  244.7 391.53 L 195.76 342.59 A 48.94 48.94 0 0 0 244.7 391.53" fill="#ebe4f7"/><path d="M 293.65 391.53 A 48.94 48.94 0 0 1  342.59 342.59 L 293.65 391.53 A 48.94 48.94 0 0 0 342.59 342.59" fill="#fefdfe"/><rect x="342.5882352941176" y="342.5882352941176" width="48.94117647058823" height="48.94117647058823" fill="#ffffff"/><path d="M 342.59 367.05999999999995 A 24.47 24.47 0 0 1  367.05999999999995 342.59 L 342.59 367.05999999999995 A 24.47 24.47 0 0 0 367.05999999999995 342.59" fill="#f8f4f9"/><path d="M 367.06 367.05999999999995 A 24.47 24.47 0 0 1  391.53 342.59 L 367.06 367.05999999999995 A 24.47 24.47 0 0 0 391.53 342.59" fill="#fcfbfd"/><path d="M 342.59 367.06 A 24.47 24.47 0 0 1  367.05999999999995 391.53 L 342.59 367.06 A 24.47 24.47 0 0 0 367.05999999999995 391.53" fill="#f9f6fa"/><path d="M 391.53 342.59 A 48.94 48.94 0 0 1  440.46999999999997 391.53 L 391.53 342.59 A 48.94 48.94 0 0 0 440.46999999999997 391.53" fill="#fdfcfd"/><path d="M 440.47 391.53 A 48.94 48.94 0 0 1  489.41 342.59 L 440.47 391.53 A 48.94 48.94 0 0 0 489.41 342.59" fill="#fbf8fb"/><path d="M 489.41 391.53 A 48.94 48.94 0 0 1  538.35 342.59 L 489.41 391.53 A 48.94 48.94 0 0 0 538.35 342.59" fill="#d5c6ee"/><rect x="538.3529411764705" y="342.5882352941176" width="48.94117647058823" height="48.94117647058823" fill="#ffffff"/><path d="M 538.35 342.59 A 24.47 24.47 0 0 1  562.82 367.05999999999995 L 538.35 342.59 A 24.47 24.47 0 0 0 562.82 367.05999999999995" fill="#dbcef0"/><path d="M 538.35 367.06 A 24.47 24.47 0 0 1  562.82 391.53 L 538.35 367.06 A 24.47 24.47 0 0 0 562.82 391.53" fill="#faf7fb"/><path d="M 685.18 342.59 A 48.94 48.94 0 0 1  734.1199999999999 391.53 L 685.18 342.59 A 48.94 48.94 0 0 0 734.1199999999999 391.53" fill="#d3c3ed"/><path d="M 734.12 391.53 A 48.94 48.94 0 0 1  783.06 342.59 L 734.12 391.53 A 48.94 48.94 0 0 0 783.06 342.59" fill="#d0bfec"/><rect x="783.0588235294117" y="342.5882352941176" width="48.94117647058823" height="48.94117647058823" fill="#ffffff"/><path d="M 783.06 391.53 A 24.47 24.47 0 0 1  807.53 367.06 L 783.06 391.53 A 24.47 24.47 0 0 0 807.53 367.06" fill="#f9f5fa"/><path d="M 807.53 367.06 A 24.47 24.47 0 0 1  832 391.53 L 807.53 367.06 A 24.47 24.47 0 0 0 832 391.53" fill="#fbf9fb"/><rect x="880.9411764705882" y="342.5882352941176" width="48.94117647058823" height="48.94117647058823" fill="#ffffff"/><path d="M 880.94 342.59 A 24.47 24.47 0 0 1  905.4100000000001 367.05999999999995 L 880.94 342.59 A 24.47 24.47 0 0 0 905.4100000000001 367.05999999999995" fill="#f8f4f9"/><path d="M 905.41 342.59 A 24.47 24.47 0 0 1  929.88 367.05999999999995 L 905.41 342.59 A 24.47 24.47 0 0 0 929.88 367.05999999999995" fill="#ccbaeb"/><path d="M 880.94 391.53 A 24.47 24.47 0 0 1  905.4100000000001 367.06 L 880.94 391.53 A 24.47 24.47 0 0 0 905.4100000000001 367.06" fill="#e6def5"/><rect x="195.76470588235293" y="391.52941176470586" width="48.94117647058823" height="48.94117647058823" fill="#ffffff"/><path d="M 195.76 391.53 A 24.47 24.47 0 0 1  220.23 416 L 195.76 391.53 A 24.47 24.47 0 0 0 220.23 416" fill="#c1abe6"/><path d="M 220.24 391.53 A 24.47 24.47 0 0 1  244.71 416 L 220.24 391.53 A 24.47 24.47 0 0 0 244.71 416" fill="#fdfcfd"/><path d="M 220.24 440.47 A 24.47 24.47 0 0 1  244.71 416 L 220.24 440.47 A 24.47 24.47 0 0 0 244.71 416" fill="#f9f5fa"/><path d="M 244.71 391.53 A 48.94 48.94 0 0 1  293.65 440.46999999999997 L 244.71 391.53 A 48.94 48.94 0 0 0 293.65 440.46999999999997" fill="#f6f3fb"/><path d="M 293.65 440.46999999999997 A 48.94 48.94 0 0 1  342.59 391.53 L 293.65 440.46999999999997 A 48.94 48.94 0 0 0 342.59 391.53" fill="#fbf8fb"/><path d="M 440.47 391.53 A 48.94 48.94 0 0 1  489.41 440.46999999999997 L 440.47 391.53 A 48.94 48.94 0 0 0 489.41 440.46999999999997" fill="#efe9f9"/><rect x="489.4117647058823" y="391.52941176470586" width="48.94117647058823" height="48.94117647058823" fill="#ffffff"/><path d="M 489.41 391.53 A 24.47 24.47 0 0 1  513.88 416 L 489.41 391.53 A 24.47 24.47 0 0 0 513.88 416" fill="#c1abe6"/><path d="M 513.88 416 A 24.47 24.47 0 0 1  538.35 391.53 L 513.88 416 A 24.47 24.47 0 0 0 538.35 391.53" fill="#fbf9fc"/><path d="M 489.41 416 A 24.47 24.47 0 0 1  513.88 440.47 L 489.41 416 A 24.47 24.47 0 0 0 513.88 440.47" fill="#e7dff6"/><rect x="587.2941176470588" y="391.52941176470586" width="48.94117647058823" height="48.94117647058823" fill="#ffffff"/><path d="M 611.76 416 A 24.47 24.47 0 0 1  636.23 440.47 L 611.76 416 A 24.47 24.47 0 0 0 636.23 440.47" fill="#d7c8ef"/><rect x="783.0588235294117" y="391.52941176470586" width="48.94117647058823" height="48.94117647058823" fill="#ffffff"/><path d="M 783.06 391.53 A 24.47 24.47 0 0 1  807.53 416 L 783.06 391.53 A 24.47 24.47 0 0 0 807.53 416" fill="#bfa9e6"/><path d="M 807.53 416 A 24.47 24.47 0 0 1  832 391.53 L 807.53 416 A 24.47 24.47 0 0 0 832 391.53" fill="#fefdfe"/><path d="M 807.53 416 A 24.47 24.47 0 0 1  832 440.47 L 807.53 416 A 24.47 24.47 0 0 0 832 440.47" fill="#fbf9fc"/><path d="M 832 440.46999999999997 A 48.94 48.94 0 0 1  880.94 391.53 L 832 440.46999999999997 A 48.94 48.94 0 0 0 880.94 391.53" fill="#faf6fa"/><path d="M 929.88 391.53 A 48.94 48.94 0 0 1  978.8199999999999 440.46999999999997 L 929.88 391.53 A 48.94 48.94 0 0 0 978.8199999999999 440.46999999999997" fill="#fefdfe"/><rect x="48.94117647058823" y="440.4705882352941" width="48.94117647058823" height="48.94117647058823" fill="#ffffff"/><path d="M 48.94 440.47 A 24.47 24.47 0 0 1  73.41 464.94000000000005 L 48.94 440.47 A 24.47 24.47 0 0 0 73.41 464.94000000000005" fill="#d5c7ee"/><path d="M 73.41 464.94000000000005 A 24.47 24.47 0 0 1  97.88 440.47 L 73.41 464.94000000000005 A 24.47 24.47 0 0 0 97.88 440.47" fill="#f9f6fa"/><path d="M 48.94 489.40999999999997 A 24.47 24.47 0 0 1  73.41 464.94 L 48.94 489.40999999999997 A 24.47 24.47 0 0 0 73.41 464.94" fill="#f9f5fa"/><path d="M 73.41 489.40999999999997 A 24.47 24.47 0 0 1  97.88 464.94 L 73.41 489.40999999999997 A 24.47 24.47 0 0 0 97.88 464.94" fill="#fbf9fc"/><rect x="97.88235294117646" y="440.4705882352941" width="48.94117647058823" height="48.94117647058823" fill="#ffffff"/><path d="M 97.88 440.47 A 24.47 24.47 0 0 1  122.35 464.94000000000005 L 97.88 440.47 A 24.47 24.47 0 0 0 122.35 464.94000000000005" fill="#f4f0fb"/><path d="M 195.76 440.47 A 48.94 48.94 0 0 1  244.7 489.41 L 195.76 440.47 A 48.94 48.94 0 0 0 244.7 489.41" fill="#d7c8ef"/><rect x="293.6470588235294" y="440.4705882352941" width="48.94117647058823" height="48.94117647058823" fill="#ffffff"/><path d="M 318.12 440.47 A 24.47 24.47 0 0 1  342.59000000000003 464.94000000000005 L 318.12 440.47 A 24.47 24.47 0 0 0 342.59000000000003 464.94000000000005" fill="#f9f5fa"/><path d="M 293.65 464.94 A 24.47 24.47 0 0 1  318.12 489.40999999999997 L 293.65 464.94 A 24.47 24.47 0 0 0 318.12 489.40999999999997" fill="#fdfcfe"/><path d="M 440.47 489.41 A 48.94 48.94 0 0 1  489.41 440.47 L 440.47 489.41 A 48.94 48.94 0 0 0 489.41 440.47" fill="#faf7fb"/><rect x="489.4117647058823" y="440.4705882352941" width="48.94117647058823" height="48.94117647058823" fill="#ffffff"/><path d="M 489.41 464.94000000000005 A 24.47 24.47 0 0 1  513.88 440.47 L 489.41 464.94000000000005 A 24.47 24.47 0 0 0 513.88 440.47" fill="#c2ace6"/><path d="M 513.88 440.47 A 24.47 24.47 0 0 1  538.35 464.94000000000005 L 513.88 440.47 A 24.47 24.47 0 0 0 538.35 464.94000000000005" fill="#f8f5fc"/><path d="M 489.41 489.40999999999997 A 24.47 24.47 0 0 1  513.88 464.94 L 489.41 489.40999999999997 A 24.47 24.47 0 0 0 513.88 464.94" fill="#fcfbfe"/><rect x="538.3529411764705" y="440.4705882352941" width="48.94117647058823" height="48.94117647058823" fill="#ffffff"/><path d="M 538.35 440.47 A 24.47 24.47 0 0 1  562.82 464.94000000000005 L 538.35 440.47 A 24.47 24.47 0 0 0 562.82 464.94000000000005" fill="#f9f6fa"/><path d="M 538.35 464.94 A 24.47 24.47 0 0 1  562.82 489.40999999999997 L 538.35 464.94 A 24.47 24.47 0 0 0 562.82 489.40999999999997" fill="#ebe4f7"/><path d="M 587.29 489.41 A 48.94 48.94 0 0 1  636.23 440.47 L 587.29 489.41 A 48.94 48.94 0 0 0 636.23 440.47" fill="#efe9f8"/><rect x="783.0588235294117" y="440.4705882352941" width="48.94117647058823" height="48.94117647058823" fill="#ffffff"/><path d="M 807.53 464.94000000000005 A 24.47 24.47 0 0 1  832 440.47 L 807.53 464.94000000000005 A 24.47 24.47 0 0 0 832 440.47" fill="#fefefe"/><path d="M 807.53 489.40999999999997 A 24.47 24.47 0 0 1  832 464.94 L 807.53 489.40999999999997 A 24.47 24.47 0 0 0 832 464.94" fill="#cfbfec"/><rect x="880.9411764705882" y="440.4705882352941" width="48.94117647058823" height="48.94117647058823" fill="#ffffff"/><path d="M 880.94 464.94000000000005 A 24.47 24.47 0 0 1  905.4100000000001 440.47 L 880.94 464.94000000000005 A 24.47 24.47 0 0 0 905.4100000000001 440.47" fill="#faf7fa"/><rect x="929.8823529411764" y="440.4705882352941" width="48.94117647058823" height="48.94117647058823" fill="#ffffff"/><path d="M 954.35 440.47 A 24.47 24.47 0 0 1  978.82 464.94000000000005 L 954.35 440.47 A 24.47 24.47 0 0 0 978.82 464.94000000000005" fill="#f7f5fc"/><path d="M 954.35 464.94 A 24.47 24.47 0 0 1  978.82 489.40999999999997 L 954.35 464.94 A 24.47 24.47 0 0 0 978.82 489.40999999999997" fill="#fdfdfe"/><path d="M 48.94 538.35 A 48.94 48.94 0 0 1  97.88 489.41 L 48.94 538.35 A 48.94 48.94 0 0 0 97.88 489.41" fill="#fbf9fc"/><rect x="97.88235294117646" y="489.4117647058823" width="48.94117647058823" height="48.94117647058823" fill="#ffffff"/><path d="M 97.88 489.41 A 24.47 24.47 0 0 1  122.35 513.88 L 97.88 489.41 A 24.47 24.47 0 0 0 122.35 513.88" fill="#dacdf0"/><path d="M 97.88 538.35 A 24.47 24.47 0 0 1  122.35 513.88 L 97.88 538.35 A 24.47 24.47 0 0 0 122.35 513.88" fill="#fefdfe"/><path d="M 122.35 538.35 A 24.47 24.47 0 0 1  146.82 513.88 L 122.35 538.35 A 24.47 24.47 0 0 0 146.82 513.88" fill="#fcfafe"/><rect x="146.8235294117647" y="489.4117647058823" width="48.94117647058823" height="48.94117647058823" fill="#ffffff"/><path d="M 171.29 513.88 A 24.47 24.47 0 0 1  195.76 538.35 L 171.29 513.88 A 24.47 24.47 0 0 0 195.76 538.35" fill="#ebe4f7"/><rect x="195.76470588235293" y="489.4117647058823" width="48.94117647058823" height="48.94117647058823" fill="#ffffff"/><path d="M 220.24 513.88 A 24.47 24.47 0 0 1  244.71 489.41 L 220.24 513.88 A 24.47 24.47 0 0 0 244.71 489.41" fill="#fbf9fc"/><path d="M 220.24 538.35 A 24.47 24.47 0 0 1  244.71 513.88 L 220.24 538.35 A 24.47 24.47 0 0 0 244.71 513.88" fill="#d3c3ed"/><rect x="293.6470588235294" y="489.4117647058823" width="48.94117647058823" height="48.94117647058823" fill="#ffffff"/><path d="M 293.65 489.41 A 24.47 24.47 0 0 1  318.12 513.88 L 293.65 489.41 A 24.47 24.47 0 0 0 318.12 513.88" fill="#fdfcfd"/><path d="M 293.65 538.35 A 24.47 24.47 0 0 1  318.12 513.88 L 293.65 538.35 A 24.47 24.47 0 0 0 318.12 513.88" fill="#fefefe"/><rect x="342.5882352941176" y="489.4117647058823" width="48.94117647058823" height="48.94117647058823" fill="#ffffff"/><path d="M 342.59 489.41 A 24.47 24.47 0 0 1  367.05999999999995 513.88 L 342.59 489.41 A 24.47 24.47 0 0 0 367.05999999999995 513.88" fill="#f1ecf9"/><path d="M 367.06 489.41 A 24.47 24.47 0 0 1  391.53 513.88 L 367.06 489.41 A 24.47 24.47 0 0 0 391.53 513.88" fill="#fdfbfd"/><path d="M 342.59 513.88 A 24.47 24.47 0 0 1  367.05999999999995 538.35 L 342.59 513.88 A 24.47 24.47 0 0 0 367.05999999999995 538.35" fill="#c3aee7"/><rect x="489.4117647058823" y="489.4117647058823" width="48.94117647058823" height="48.94117647058823" fill="#ffffff"/><path d="M 489.41 489.41 A 24.47 24.47 0 0 1  513.88 513.88 L 489.41 489.41 A 24.47 24.47 0 0 0 513.88 513.88" fill="#f0eaf9"/><path d="M 489.41 513.88 A 24.47 24.47 0 0 1  513.88 538.35 L 489.41 513.88 A 24.47 24.47 0 0 0 513.88 538.35" fill="#faf8fb"/><path d="M 538.35 538.35 A 48.94 48.94 0 0 1  587.29 489.41 L 538.35 538.35 A 48.94 48.94 0 0 0 587.29 489.41" fill="#d0c0ec"/><path d="M 587.29 538.35 A 48.94 48.94 0 0 1  636.23 489.41 L 587.29 538.35 A 48.94 48.94 0 0 0 636.23 489.41" fill="#fffeff"/><rect x="636.2352941176471" y="489.4117647058823" width="48.94117647058823" height="48.94117647058823" fill="#ffffff"/><path d="M 660.71 513.88 A 24.47 24.47 0 0 1  685.1800000000001 538.35 L 660.71 513.88 A 24.47 24.47 0 0 0 685.1800000000001 538.35" fill="#eae2f6"/><path d="M 685.18 489.41 A 48.94 48.94 0 0 1  734.1199999999999 538.35 L 685.18 489.41 A 48.94 48.94 0 0 0 734.1199999999999 538.35" fill="#fbf9fc"/><path d="M 783.06 538.35 A 48.94 48.94 0 0 1  832 489.41 L 783.06 538.35 A 48.94 48.94 0 0 0 832 489.41" fill="#fdfcfd"/><rect x="832" y="489.4117647058823" width="48.94117647058823" height="48.94117647058823" fill="#ffffff"/><path d="M 832 513.88 A 24.47 24.47 0 0 1  856.47 489.41 L 832 513.88 A 24.47 24.47 0 0 0 856.47 489.41" fill="#fffeff"/><path d="M 856.47 513.88 A 24.47 24.47 0 0 1  880.94 489.41 L 856.47 513.88 A 24.47 24.47 0 0 0 880.94 489.41" fill="#bfa9e5"/><path d="M 832 513.88 A 24.47 24.47 0 0 1  856.47 538.35 L 832 513.88 A 24.47 24.47 0 0 0 856.47 538.35" fill="#d1c1ed"/><path d="M 880.94 538.35 A 48.94 48.94 0 0 1  929.8800000000001 489.41 L 880.94 538.35 A 48.94 48.94 0 0 0 929.8800000000001 489.41" fill="#ded2f2"/><rect x="929.8823529411764" y="489.4117647058823" width="48.94117647058823" height="48.94117647058823" fill="#ffffff"/><path d="M 954.35 489.41 A 24.47 24.47 0 0 1  978.82 513.88 L 954.35 489.41 A 24.47 24.47 0 0 0 978.82 513.88" fill="#faf7fb"/><path d="M 929.88 538.35 A 24.47 24.47 0 0 1  954.35 513.88 L 929.88 538.35 A 24.47 24.47 0 0 0 954.35 513.88" fill="#f0ebf9"/><rect x="0" y="538.3529411764705" width="48.94117647058823" height="48.94117647058823" fill="#ffffff"/><path d="M 0 562.82 A 24.47 24.47 0 0 1  24.47 538.35 L 0 562.82 A 24.47 24.47 0 0 0 24.47 538.35" fill="#d1c0ec"/><path d="M 24.47 538.35 A 24.47 24.47 0 0 1  48.94 562.82 L 24.47 538.35 A 24.47 24.47 0 0 0 48.94 562.82" fill="#fdfdfe"/><path d="M 0 587.2900000000001 A 24.47 24.47 0 0 1  24.47 562.82 L 0 587.2900000000001 A 24.47 24.47 0 0 0 24.47 562.82" fill="#f4f0fa"/><path d="M 24.47 562.82 A 24.47 24.47 0 0 1  48.94 587.2900000000001 L 24.47 562.82 A 24.47 24.47 0 0 0 48.94 587.2900000000001" fill="#fbf9fc"/><rect x="97.88235294117646" y="538.3529411764705" width="48.94117647058823" height="48.94117647058823" fill="#ffffff"/><path d="M 97.88 562.82 A 24.47 24.47 0 0 1  122.35 538.35 L 97.88 562.82 A 24.47 24.47 0 0 0 122.35 538.35" fill="#e5dbf4"/><path d="M 122.35 538.35 A 24.47 24.47 0 0 1  146.82 562.82 L 122.35 538.35 A 24.47 24.47 0 0 0 146.82 562.82" fill="#e3d9f4"/><path d="M 97.88 562.82 A 24.47 24.47 0 0 1  122.35 587.2900000000001 L 97.88 562.82 A 24.47 24.47 0 0 0 122.35 587.2900000000001" fill="#fdfcfd"/><path d="M 122.35 562.82 A 24.47 24.47 0 0 1  146.82 587.2900000000001 L 122.35 562.82 A 24.47 24.47 0 0 0 146.82 587.2900000000001" fill="#f9f5f9"/><path d="M 146.82 587.29 A 48.94 48.94 0 0 1  195.76 538.35 L 146.82 587.29 A 48.94 48.94 0 0 0 195.76 538.35" fill="#fbf9fc"/><path d="M 195.76 538.35 A 48.94 48.94 0 0 1  244.7 587.29 L 195.76 538.35 A 48.94 48.94 0 0 0 244.7 587.29" fill="#faf8fb"/><rect x="244.70588235294116" y="538.3529411764705" width="48.94117647058823" height="48.94117647058823" fill="#ffffff"/><path d="M 244.71 538.35 A 24.47 24.47 0 0 1  269.18 562.82 L 244.71 538.35 A 24.47 24.47 0 0 0 269.18 562.82" fill="#f4f0fa"/><path d="M 244.71 562.82 A 24.47 24.47 0 0 1  269.18 587.2900000000001 L 244.71 562.82 A 24.47 24.47 0 0 0 269.18 587.2900000000001" fill="#f6f2fb"/><path d="M 269.18 587.2900000000001 A 24.47 24.47 0 0 1  293.65 562.82 L 269.18 587.2900000000001 A 24.47 24.47 0 0 0 293.65 562.82" fill="#faf8fb"/><rect x="293.6470588235294" y="538.3529411764705" width="48.94117647058823" height="48.94117647058823" fill="#ffffff"/><path d="M 293.65 562.82 A 24.47 24.47 0 0 1  318.12 587.2900000000001 L 293.65 562.82 A 24.47 24.47 0 0 0 318.12 587.2900000000001" fill="#faf8fb"/><path d="M 318.12 587.2900000000001 A 24.47 24.47 0 0 1  342.59000000000003 562.82 L 318.12 587.2900000000001 A 24.47 24.47 0 0 0 342.59000000000003 562.82" fill="#fdfcfd"/><rect x="342.5882352941176" y="538.3529411764705" width="48.94117647058823" height="48.94117647058823" fill="#ffffff"/><path d="M 342.59 538.35 A 24.47 24.47 0 0 1  367.05999999999995 562.82 L 342.59 538.35 A 24.47 24.47 0 0 0 367.05999999999995 562.82" fill="#fbf8fb"/><path d="M 342.59 562.82 A 24.47 24.47 0 0 1  367.05999999999995 587.2900000000001 L 342.59 562.82 A 24.47 24.47 0 0 0 367.05999999999995 587.2900000000001" fill="#fcfbfd"/><path d="M 367.06 587.2900000000001 A 24.47 24.47 0 0 1  391.53 562.82 L 367.06 587.2900000000001 A 24.47 24.47 0 0 0 391.53 562.82" fill="#f8f5f9"/><path d="M 440.47 538.35 A 48.94 48.94 0 0 1  489.41 587.29 L 440.47 538.35 A 48.94 48.94 0 0 0 489.41 587.29" fill="#c6b2e8"/><path d="M 489.41 538.35 A 48.94 48.94 0 0 1  538.35 587.29 L 489.41 538.35 A 48.94 48.94 0 0 0 538.35 587.29" fill="#f9f5fa"/><path d="M 636.24 538.35 A 48.94 48.94 0 0 1  685.1800000000001 587.29 L 636.24 538.35 A 48.94 48.94 0 0 0 685.1800000000001 587.29" fill="#dbcef1"/><rect x="685.1764705882352" y="538.3529411764705" width="48.94117647058823" height="48.94117647058823" fill="#ffffff"/><path d="M 685.18 562.82 A 24.47 24.47 0 0 1  709.65 538.35 L 685.18 562.82 A 24.47 24.47 0 0 0 709.65 538.35" fill="#fbf9fc"/><path d="M 709.65 562.82 A 24.47 24.47 0 0 1  734.12 538.35 L 709.65 562.82 A 24.47 24.47 0 0 0 734.12 538.35" fill="#fefeff"/><path d="M 685.18 587.2900000000001 A 24.47 24.47 0 0 1  709.65 562.82 L 685.18 587.2900000000001 A 24.47 24.47 0 0 0 709.65 562.82" fill="#cbb8ea"/><path d="M 734.12 587.29 A 48.94 48.94 0 0 1  783.06 538.35 L 734.12 587.29 A 48.94 48.94 0 0 0 783.06 538.35" fill="#f9f5fa"/><path d="M 783.06 587.29 A 48.94 48.94 0 0 1  832 538.35 L 783.06 587.29 A 48.94 48.94 0 0 0 832 538.35" fill="#fefdff"/><rect x="832" y="538.3529411764705" width="48.94117647058823" height="48.94117647058823" fill="#ffffff"/><path d="M 832 538.35 A 24.47 24.47 0 0 1  856.47 562.82 L 832 538.35 A 24.47 24.47 0 0 0 856.47 562.82" fill="#fcfafc"/><path d="M 856.47 562.82 A 24.47 24.47 0 0 1  880.94 538.35 L 856.47 562.82 A 24.47 24.47 0 0 0 880.94 538.35" fill="#d9cbf0"/><rect x="880.9411764705882" y="538.3529411764705" width="48.94117647058823" height="48.94117647058823" fill="#ffffff"/><path d="M 905.41 538.35 A 24.47 24.47 0 0 1  929.88 562.82 L 905.41 538.35 A 24.47 24.47 0 0 0 929.88 562.82" fill="#f8f5f9"/><path d="M 880.94 587.2900000000001 A 24.47 24.47 0 0 1  905.4100000000001 562.82 L 880.94 587.2900000000001 A 24.47 24.47 0 0 0 905.4100000000001 562.82" fill="#ebe4f7"/><path d="M 905.41 587.2900000000001 A 24.47 24.47 0 0 1  929.88 562.82 L 905.41 587.2900000000001 A 24.47 24.47 0 0 0 929.88 562.82" fill="#d3c4ee"/><path d="M 929.88 587.29 A 48.94 48.94 0 0 1  978.8199999999999 538.35 L 929.88 587.29 A 48.94 48.94 0 0 0 978.8199999999999 538.35" fill="#e4dbf4"/><path d="M 0 636.23 A 48.94 48.94 0 0 1  48.94 587.29 L 0 636.23 A 48.94 48.94 0 0 0 48.94 587.29" fill="#f9f5fa"/><path d="M 48.94 587.29 A 48.94 48.94 0 0 1  97.88 636.23 L 48.94 587.29 A 48.94 48.94 0 0 0 97.88 636.23" fill="#f9f5fa"/><path d="M 97.88 587.29 A 48.94 48.94 0 0 1  146.82 636.23 L 97.88 587.29 A 48.94 48.94 0 0 0 146.82 636.23" fill="#ccbaeb"/><rect x="146.8235294117647" y="587.2941176470588" width="48.94117647058823" height="48.94117647058823" fill="#ffffff"/><path d="M 146.82 611.76 A 24.47 24.47 0 0 1  171.29 587.29 L 146.82 611.76 A 24.47 24.47 0 0 0 171.29 587.29" fill="#ddd0f1"/><path d="M 171.29 611.76 A 24.47 24.47 0 0 1  195.76 587.29 L 171.29 611.76 A 24.47 24.47 0 0 0 195.76 587.29" fill="#faf7fb"/><path d="M 146.82 611.76 A 24.47 24.47 0 0 1  171.29 636.23 L 146.82 611.76 A 24.47 24.47 0 0 0 171.29 636.23" fill="#f2edfa"/><path d="M 171.29 611.76 A 24.47 24.47 0 0 1  195.76 636.23 L 171.29 611.76 A 24.47 24.47 0 0 0 195.76 636.23" fill="#fbf8fb"/><path d="M 195.76 587.29 A 48.94 48.94 0 0 1  244.7 636.23 L 195.76 587.29 A 48.94 48.94 0 0 0 244.7 636.23" fill="#f8f5f9"/><path d="M 244.71 587.29 A 48.94 48.94 0 0 1  293.65 636.23 L 244.71 587.29 A 48.94 48.94 0 0 0 293.65 636.23" fill="#f9f6fa"/><rect x="293.6470588235294" y="587.2941176470588" width="48.94117647058823" height="48.94117647058823" fill="#ffffff"/><path d="M 293.65 587.29 A 24.47 24.47 0 0 1  318.12 611.76 L 293.65 587.29 A 24.47 24.47 0 0 0 318.12 611.76" fill="#e8e0f6"/><path d="M 318.12 587.29 A 24.47 24.47 0 0 1  342.59000000000003 611.76 L 318.12 587.29 A 24.47 24.47 0 0 0 342.59000000000003 611.76" fill="#cbb9ea"/><path d="M 293.65 611.76 A 24.47 24.47 0 0 1  318.12 636.23 L 293.65 611.76 A 24.47 24.47 0 0 0 318.12 636.23" fill="#fdfcfe"/><path d="M 318.12 636.23 A 24.47 24.47 0 0 1  342.59000000000003 611.76 L 318.12 636.23 A 24.47 24.47 0 0 0 342.59000000000003 611.76" fill="#f9f6fa"/><rect x="342.5882352941176" y="587.2941176470588" width="48.94117647058823" height="48.94117647058823" fill="#ffffff"/><path d="M 342.59 611.76 A 24.47 24.47 0 0 1  367.05999999999995 587.29 L 342.59 611.76 A 24.47 24.47 0 0 0 367.05999999999995 587.29" fill="#f5f2fb"/><path d="M 342.59 611.76 A 24.47 24.47 0 0 1  367.05999999999995 636.23 L 342.59 611.76 A 24.47 24.47 0 0 0 367.05999999999995 636.23" fill="#fcfbfd"/><path d="M 367.06 636.23 A 24.47 24.47 0 0 1  391.53 611.76 L 367.06 636.23 A 24.47 24.47 0 0 0 391.53 611.76" fill="#ebe4f7"/><path d="M 391.53 636.23 A 48.94 48.94 0 0 1  440.46999999999997 587.29 L 391.53 636.23 A 48.94 48.94 0 0 0 440.46999999999997 587.29" fill="#f4f1fb"/><path d="M 440.47 587.29 A 48.94 48.94 0 0 1  489.41 636.23 L 440.47 587.29 A 48.94 48.94 0 0 0 489.41 636.23" fill="#c7b3e9"/><rect x="489.4117647058823" y="587.2941176470588" width="48.94117647058823" height="48.94117647058823" fill="#ffffff"/><path d="M 489.41 587.29 A 24.47 24.47 0 0 1  513.88 611.76 L 489.41 587.29 A 24.47 24.47 0 0 0 513.88 611.76" fill="#d8caef"/><path d="M 513.88 611.76 A 24.47 24.47 0 0 1  538.35 587.29 L 513.88 611.76 A 24.47 24.47 0 0 0 538.35 587.29" fill="#cfbeec"/><path d="M 489.41 611.76 A 24.47 24.47 0 0 1  513.88 636.23 L 489.41 611.76 A 24.47 24.47 0 0 0 513.88 636.23" fill="#cfbeec"/><path d="M 513.88 611.76 A 24.47 24.47 0 0 1  538.35 636.23 L 513.88 611.76 A 24.47 24.47 0 0 0 538.35 636.23" fill="#bfa8e5"/><path d="M 538.35 587.29 A 48.94 48.94 0 0 1  587.29 636.23 L 538.35 587.29 A 48.94 48.94 0 0 0 587.29 636.23" fill="#ebe4f7"/><path d="M 587.29 636.23 A 48.94 48.94 0 0 1  636.23 587.29 L 587.29 636.23 A 48.94 48.94 0 0 0 636.23 587.29" fill="#dbcff1"/><rect x="636.2352941176471" y="587.2941176470588" width="48.94117647058823" height="48.94117647058823" fill="#ffffff"/><path d="M 660.71 611.76 A 24.47 24.47 0 0 1  685.1800000000001 587.29 L 660.71 611.76 A 24.47 24.47 0 0 0 685.1800000000001 587.29" fill="#fcfafc"/><path d="M 636.24 611.76 A 24.47 24.47 0 0 1  660.71 636.23 L 636.24 611.76 A 24.47 24.47 0 0 0 660.71 636.23" fill="#f0eaf9"/><path d="M 660.71 611.76 A 24.47 24.47 0 0 1  685.1800000000001 636.23 L 660.71 611.76 A 24.47 24.47 0 0 0 685.1800000000001 636.23" fill="#e7dff6"/><path d="M 685.18 636.23 A 48.94 48.94 0 0 1  734.1199999999999 587.29 L 685.18 636.23 A 48.94 48.94 0 0 0 734.1199999999999 587.29" fill="#d0bfec"/><rect x="734.1176470588234" y="587.2941176470588" width="48.94117647058823" height="48.94117647058823" fill="#ffffff"/><path d="M 734.12 611.76 A 24.47 24.47 0 0 1  758.59 587.29 L 734.12 611.76 A 24.47 24.47 0 0 0 758.59 587.29" fill="#dfd3f2"/><path d="M 758.59 587.29 A 24.47 24.47 0 0 1  783.0600000000001 611.76 L 758.59 587.29 A 24.47 24.47 0 0 0 783.0600000000001 611.76" fill="#fdfcfd"/><path d="M 758.59 636.23 A 24.47 24.47 0 0 1  783.0600000000001 611.76 L 758.59 636.23 A 24.47 24.47 0 0 0 783.0600000000001 611.76" fill="#e4dbf4"/><path d="M 783.06 587.29 A 48.94 48.94 0 0 1  832 636.23 L 783.06 587.29 A 48.94 48.94 0 0 0 832 636.23" fill="#daccf0"/><rect x="832" y="587.2941176470588" width="48.94117647058823" height="48.94117647058823" fill="#ffffff"/><path d="M 832 587.29 A 24.47 24.47 0 0 1  856.47 611.76 L 832 587.29 A 24.47 24.47 0 0 0 856.47 611.76" fill="#fefdff"/><path d="M 856.47 587.29 A 24.47 24.47 0 0 1  880.94 611.76 L 856.47 587.29 A 24.47 24.47 0 0 0 880.94 611.76" fill="#c0a9e6"/><path d="M 832 611.76 A 24.47 24.47 0 0 1  856.47 636.23 L 832 611.76 A 24.47 24.47 0 0 0 856.47 636.23" fill="#fdfbfd"/><path d="M 856.47 611.76 A 24.47 24.47 0 0 1  880.94 636.23 L 856.47 611.76 A 24.47 24.47 0 0 0 880.94 636.23" fill="#faf7fb"/><rect x="880.9411764705882" y="587.2941176470588" width="48.94117647058823" height="48.94117647058823" fill="#ffffff"/><path d="M 880.94 611.76 A 24.47 24.47 0 0 1  905.4100000000001 587.29 L 880.94 611.76 A 24.47 24.47 0 0 0 905.4100000000001 587.29" fill="#f9f5fa"/><path d="M 905.41 611.76 A 24.47 24.47 0 0 1  929.88 587.29 L 905.41 611.76 A 24.47 24.47 0 0 0 929.88 587.29" fill="#dbcef0"/><path d="M 880.94 611.76 A 24.47 24.47 0 0 1  905.4100000000001 636.23 L 880.94 611.76 A 24.47 24.47 0 0 0 905.4100000000001 636.23" fill="#faf6fa"/><path d="M 905.41 636.23 A 24.47 24.47 0 0 1  929.88 611.76 L 905.41 636.23 A 24.47 24.47 0 0 0 929.88 611.76" fill="#cab7ea"/><path d="M 929.88 636.23 A 48.94 48.94 0 0 1  978.8199999999999 587.29 L 929.88 636.23 A 48.94 48.94 0 0 0 978.8199999999999 587.29" fill="#fdfdfe"/><path d="M 0 636.24 A 48.94 48.94 0 0 1  48.94 685.1800000000001 L 0 636.24 A 48.94 48.94 0 0 0 48.94 685.1800000000001" fill="#fffeff"/><path d="M 48.94 685.1800000000001 A 48.94 48.94 0 0 1  97.88 636.24 L 48.94 685.1800000000001 A 48.94 48.94 0 0 0 97.88 636.24" fill="#fefefe"/><path d="M 97.88 685.1800000000001 A 48.94 48.94 0 0 1  146.82 636.24 L 97.88 685.1800000000001 A 48.94 48.94 0 0 0 146.82 636.24" fill="#fcfbfd"/><path d="M 146.82 636.24 A 48.94 48.94 0 0 1  195.76 685.1800000000001 L 146.82 636.24 A 48.94 48.94 0 0 0 195.76 685.1800000000001" fill="#f7f5fc"/><path d="M 195.76 685.1800000000001 A 48.94 48.94 0 0 1  244.7 636.24 L 195.76 685.1800000000001 A 48.94 48.94 0 0 0 244.7 636.24" fill="#fefefe"/><rect x="244.70588235294116" y="636.2352941176471" width="48.94117647058823" height="48.94117647058823" fill="#ffffff"/><path d="M 244.71 660.71 A 24.47 24.47 0 0 1  269.18 636.24 L 244.71 660.71 A 24.47 24.47 0 0 0 269.18 636.24" fill="#f9f6fa"/><path d="M 269.18 660.71 A 24.47 24.47 0 0 1  293.65 636.24 L 269.18 660.71 A 24.47 24.47 0 0 0 293.65 636.24" fill="#fcfafc"/><path d="M 244.71 685.1800000000001 A 24.47 24.47 0 0 1  269.18 660.71 L 244.71 685.1800000000001 A 24.47 24.47 0 0 0 269.18 660.71" fill="#faf8fb"/><path d="M 269.18 685.1800000000001 A 24.47 24.47 0 0 1  293.65 660.71 L 269.18 685.1800000000001 A 24.47 24.47 0 0 0 293.65 660.71" fill="#fdfdfe"/><rect x="342.5882352941176" y="636.2352941176471" width="48.94117647058823" height="48.94117647058823" fill="#ffffff"/><path d="M 342.59 636.24 A 24.47 24.47 0 0 1  367.05999999999995 660.71 L 342.59 636.24 A 24.47 24.47 0 0 0 367.05999999999995 660.71" fill="#ede6f8"/><path d="M 367.06 660.71 A 24.47 24.47 0 0 1  391.53 636.24 L 367.06 660.71 A 24.47 24.47 0 0 0 391.53 636.24" fill="#c6b2e8"/><path d="M 342.59 685.1800000000001 A 24.47 24.47 0 0 1  367.05999999999995 660.71 L 342.59 685.1800000000001 A 24.47 24.47 0 0 0 367.05999999999995 660.71" fill="#c6b1e8"/><path d="M 367.06 685.1800000000001 A 24.47 24.47 0 0 1  391.53 660.71 L 367.06 685.1800000000001 A 24.47 24.47 0 0 0 391.53 660.71" fill="#f3effa"/><path d="M 391.53 685.1800000000001 A 48.94 48.94 0 0 1  440.46999999999997 636.24 L 391.53 685.1800000000001 A 48.94 48.94 0 0 0 440.46999999999997 636.24" fill="#f6f3fb"/><rect x="440.4705882352941" y="636.2352941176471" width="48.94117647058823" height="48.94117647058823" fill="#ffffff"/><path d="M 440.47 660.71 A 24.47 24.47 0 0 1  464.94000000000005 636.24 L 440.47 660.71 A 24.47 24.47 0 0 0 464.94000000000005 636.24" fill="#fbf9fc"/><path d="M 464.94 660.71 A 24.47 24.47 0 0 1  489.40999999999997 636.24 L 464.94 660.71 A 24.47 24.47 0 0 0 489.40999999999997 636.24" fill="#f5f1fb"/><path d="M 440.47 660.71 A 24.47 24.47 0 0 1  464.94000000000005 685.1800000000001 L 440.47 660.71 A 24.47 24.47 0 0 0 464.94000000000005 685.1800000000001" fill="#cebdec"/><path d="M 464.94 685.1800000000001 A 24.47 24.47 0 0 1  489.40999999999997 660.71 L 464.94 685.1800000000001 A 24.47 24.47 0 0 0 489.40999999999997 660.71" fill="#f9f6fa"/><path d="M 489.41 685.1800000000001 A 48.94 48.94 0 0 1  538.35 636.24 L 489.41 685.1800000000001 A 48.94 48.94 0 0 0 538.35 636.24" fill="#f9f7fd"/><path d="M 538.35 685.1800000000001 A 48.94 48.94 0 0 1  587.29 636.24 L 538.35 685.1800000000001 A 48.94 48.94 0 0 0 587.29 636.24" fill="#fcfbfd"/><rect x="587.2941176470588" y="636.2352941176471" width="48.94117647058823" height="48.94117647058823" fill="#ffffff"/><path d="M 587.29 636.24 A 24.47 24.47 0 0 1  611.76 660.71 L 587.29 636.24 A 24.47 24.47 0 0 0 611.76 660.71" fill="#f2edfa"/><path d="M 611.76 636.24 A 24.47 24.47 0 0 1  636.23 660.71 L 611.76 636.24 A 24.47 24.47 0 0 0 636.23 660.71" fill="#fefdfe"/><path d="M 587.29 660.71 A 24.47 24.47 0 0 1  611.76 685.1800000000001 L 587.29 660.71 A 24.47 24.47 0 0 0 611.76 685.1800000000001" fill="#c6b1e8"/><path d="M 611.76 685.1800000000001 A 24.47 24.47 0 0 1  636.23 660.71 L 611.76 685.1800000000001 A 24.47 24.47 0 0 0 636.23 660.71" fill="#fefeff"/><path d="M 636.24 636.24 A 48.94 48.94 0 0 1  685.1800000000001 685.1800000000001 L 636.24 636.24 A 48.94 48.94 0 0 0 685.1800000000001 685.1800000000001" fill="#fcfafc"/><path d="M 685.18 685.1800000000001 A 48.94 48.94 0 0 1  734.1199999999999 636.24 L 685.18 685.1800000000001 A 48.94 48.94 0 0 0 734.1199999999999 636.24" fill="#fcfafc"/><path d="M 734.12 685.1800000000001 A 48.94 48.94 0 0 1  783.06 636.24 L 734.12 685.1800000000001 A 48.94 48.94 0 0 0 783.06 636.24" fill="#fdfbfd"/><rect x="783.0588235294117" y="636.2352941176471" width="48.94117647058823" height="48.94117647058823" fill="#ffffff"/><path d="M 783.06 636.24 A 24.47 24.47 0 0 1  807.53 660.71 L 783.06 636.24 A 24.47 24.47 0 0 0 807.53 660.71" fill="#c4afe7"/><path d="M 807.53 660.71 A 24.47 24.47 0 0 1  832 636.24 L 807.53 660.71 A 24.47 24.47 0 0 0 832 636.24" fill="#faf7fb"/><path d="M 783.06 685.1800000000001 A 24.47 24.47 0 0 1  807.53 660.71 L 783.06 685.1800000000001 A 24.47 24.47 0 0 0 807.53 660.71" fill="#fefdfe"/><path d="M 807.53 660.71 A 24.47 24.47 0 0 1  832 685.1800000000001 L 807.53 660.71 A 24.47 24.47 0 0 0 832 685.1800000000001" fill="#d7c8ef"/><rect x="880.9411764705882" y="636.2352941176471" width="48.94117647058823" height="48.94117647058823" fill="#ffffff"/><path d="M 905.41 636.24 A 24.47 24.47 0 0 1  929.88 660.71 L 905.41 636.24 A 24.47 24.47 0 0 0 929.88 660.71" fill="#dacdf0"/><path d="M 880.94 660.71 A 24.47 24.47 0 0 1  905.4100000000001 685.1800000000001 L 880.94 660.71 A 24.47 24.47 0 0 0 905.4100000000001 685.1800000000001" fill="#f8f5f9"/><path d="M 905.41 660.71 A 24.47 24.47 0 0 1  929.88 685.1800000000001 L 905.41 660.71 A 24.47 24.47 0 0 0 929.88 685.1800000000001" fill="#faf8fb"/><rect x="929.8823529411764" y="636.2352941176471" width="48.94117647058823" height="48.94117647058823" fill="#ffffff"/><path d="M 929.88 636.24 A 24.47 24.47 0 0 1  954.35 660.71 L 929.88 636.24 A 24.47 24.47 0 0 0 954.35 660.71" fill="#c0aae6"/><path d="M 954.35 636.24 A 24.47 24.47 0 0 1  978.82 660.71 L 954.35 636.24 A 24.47 24.47 0 0 0 978.82 660.71" fill="#d3c3ed"/><path d="M 929.88 685.1800000000001 A 24.47 24.47 0 0 1  954.35 660.71 L 929.88 685.1800000000001 A 24.47 24.47 0 0 0 954.35 660.71" fill="#fffeff"/><path d="M 954.35 685.1800000000001 A 24.47 24.47 0 0 1  978.82 660.71 L 954.35 685.1800000000001 A 24.47 24.47 0 0 0 978.82 660.71" fill="#fefefe"/><path d="M 0 685.18 A 48.94 48.94 0 0 1  48.94 734.1199999999999 L 0 685.18 A 48.94 48.94 0 0 0 48.94 734.1199999999999" fill="#faf6fa"/><path d="M 48.94 734.1199999999999 A 48.94 48.94 0 0 1  97.88 685.18 L 48.94 734.1199999999999 A 48.94 48.94 0 0 0 97.88 685.18" fill="#d5c7ee"/><path d="M 97.88 734.1199999999999 A 48.94 48.94 0 0 1  146.82 685.18 L 97.88 734.1199999999999 A 48.94 48.94 0 0 0 146.82 685.18" fill="#e8e0f6"/><path d="M 146.82 734.1199999999999 A 48.94 48.94 0 0 1  195.76 685.18 L 146.82 734.1199999999999 A 48.94 48.94 0 0 0 195.76 685.18" fill="#fdfcfd"/><rect x="195.76470588235293" y="685.1764705882352" width="48.94117647058823" height="48.94117647058823" fill="#ffffff"/><path d="M 195.76 685.18 A 24.47 24.47 0 0 1  220.23 709.65 L 195.76 685.18 A 24.47 24.47 0 0 0 220.23 709.65" fill="#e0d5f3"/><path d="M 220.24 709.65 A 24.47 24.47 0 0 1  244.71 685.18 L 220.24 709.65 A 24.47 24.47 0 0 0 244.71 685.18" fill="#f2eefa"/><path d="M 195.76 734.12 A 24.47 24.47 0 0 1  220.23 709.65 L 195.76 734.12 A 24.47 24.47 0 0 0 220.23 709.65" fill="#ded2f2"/><path d="M 220.24 734.12 A 24.47 24.47 0 0 1  244.71 709.65 L 220.24 734.12 A 24.47 24.47 0 0 0 244.71 709.65" fill="#ede7f8"/><path d="M 244.71 734.1199999999999 A 48.94 48.94 0 0 1  293.65 685.18 L 244.71 734.1199999999999 A 48.94 48.94 0 0 0 293.65 685.18" fill="#f9f5fa"/><path d="M 293.65 734.1199999999999 A 48.94 48.94 0 0 1  342.59 685.18 L 293.65 734.1199999999999 A 48.94 48.94 0 0 0 342.59 685.18" fill="#d4c5ee"/><path d="M 342.59 734.1199999999999 A 48.94 48.94 0 0 1  391.53 685.18 L 342.59 734.1199999999999 A 48.94 48.94 0 0 0 391.53 685.18" fill="#f8f4f9"/><path d="M 440.47 685.18 A 48.94 48.94 0 0 1  489.41 734.1199999999999 L 440.47 685.18 A 48.94 48.94 0 0 0 489.41 734.1199999999999" fill="#fefdfe"/><rect x="489.4117647058823" y="685.1764705882352" width="48.94117647058823" height="48.94117647058823" fill="#ffffff"/><path d="M 489.41 709.65 A 24.47 24.47 0 0 1  513.88 685.18 L 489.41 709.65 A 24.47 24.47 0 0 0 513.88 685.18" fill="#faf7fa"/><path d="M 513.88 685.18 A 24.47 24.47 0 0 1  538.35 709.65 L 513.88 685.18 A 24.47 24.47 0 0 0 538.35 709.65" fill="#f4f0fb"/><path d="M 489.41 709.65 A 24.47 24.47 0 0 1  513.88 734.12 L 489.41 709.65 A 24.47 24.47 0 0 0 513.88 734.12" fill="#f9f5f9"/><path d="M 513.88 734.12 A 24.47 24.47 0 0 1  538.35 709.65 L 513.88 734.12 A 24.47 24.47 0 0 0 538.35 709.65" fill="#e0d5f2"/><rect x="538.3529411764705" y="685.1764705882352" width="48.94117647058823" height="48.94117647058823" fill="#ffffff"/><path d="M 538.35 685.18 A 24.47 24.47 0 0 1  562.82 709.65 L 538.35 685.18 A 24.47 24.47 0 0 0 562.82 709.65" fill="#faf7fb"/><path d="M 562.82 709.65 A 24.47 24.47 0 0 1  587.2900000000001 685.18 L 562.82 709.65 A 24.47 24.47 0 0 0 587.2900000000001 685.18" fill="#fdfcfd"/><path d="M 538.35 709.65 A 24.47 24.47 0 0 1  562.82 734.12 L 538.35 709.65 A 24.47 24.47 0 0 0 562.82 734.12" fill="#efe9f8"/><path d="M 562.82 734.12 A 24.47 24.47 0 0 1  587.2900000000001 709.65 L 562.82 734.12 A 24.47 24.47 0 0 0 587.2900000000001 709.65" fill="#f9f6fa"/><path d="M 587.29 685.18 A 48.94 48.94 0 0 1  636.23 734.1199999999999 L 587.29 685.18 A 48.94 48.94 0 0 0 636.23 734.1199999999999" fill="#eae3f7"/><rect x="636.2352941176471" y="685.1764705882352" width="48.94117647058823" height="48.94117647058823" fill="#ffffff"/><path d="M 636.24 709.65 A 24.47 24.47 0 0 1  660.71 685.18 L 636.24 709.65 A 24.47 24.47 0 0 0 660.71 685.18" fill="#faf7fb"/><path d="M 660.71 709.65 A 24.47 24.47 0 0 1  685.1800000000001 685.18 L 660.71 709.65 A 24.47 24.47 0 0 0 685.1800000000001 685.18" fill="#f9f5fa"/><path d="M 636.24 709.65 A 24.47 24.47 0 0 1  660.71 734.12 L 636.24 709.65 A 24.47 24.47 0 0 0 660.71 734.12" fill="#e6def5"/><path d="M 660.71 709.65 A 24.47 24.47 0 0 1  685.1800000000001 734.12 L 660.71 709.65 A 24.47 24.47 0 0 0 685.1800000000001 734.12" fill="#fbf9fb"/><path d="M 685.18 685.18 A 48.94 48.94 0 0 1  734.1199999999999 734.1199999999999 L 685.18 685.18 A 48.94 48.94 0 0 0 734.1199999999999 734.1199999999999" fill="#f5f2fb"/><path d="M 734.12 685.18 A 48.94 48.94 0 0 1  783.06 734.1199999999999 L 734.12 685.18 A 48.94 48.94 0 0 0 783.06 734.1199999999999" fill="#d1c0ec"/><rect x="783.0588235294117" y="685.1764705882352" width="48.94117647058823" height="48.94117647058823" fill="#ffffff"/><path d="M 783.06 709.65 A 24.47 24.47 0 0 1  807.53 685.18 L 783.06 709.65 A 24.47 24.47 0 0 0 807.53 685.18" fill="#ffffff"/><path d="M 807.53 709.65 A 24.47 24.47 0 0 1  832 685.18 L 807.53 709.65 A 24.47 24.47 0 0 0 832 685.18" fill="#fcfafc"/><path d="M 783.06 734.12 A 24.47 24.47 0 0 1  807.53 709.65 L 783.06 734.12 A 24.47 24.47 0 0 0 807.53 709.65" fill="#fcfafc"/><path d="M 807.53 734.12 A 24.47 24.47 0 0 1  832 709.65 L 807.53 734.12 A 24.47 24.47 0 0 0 832 709.65" fill="#faf7fa"/><rect x="832" y="685.1764705882352" width="48.94117647058823" height="48.94117647058823" fill="#ffffff"/><path d="M 832 709.65 A 24.47 24.47 0 0 1  856.47 685.18 L 832 709.65 A 24.47 24.47 0 0 0 856.47 685.18" fill="#ece6f8"/><path d="M 856.47 709.65 A 24.47 24.47 0 0 1  880.94 685.18 L 856.47 709.65 A 24.47 24.47 0 0 0 880.94 685.18" fill="#bfa8e5"/><path d="M 832 734.12 A 24.47 24.47 0 0 1  856.47 709.65 L 832 734.12 A 24.47 24.47 0 0 0 856.47 709.65" fill="#fbf9fc"/><path d="M 856.47 709.65 A 24.47 24.47 0 0 1  880.94 734.12 L 856.47 709.65 A 24.47 24.47 0 0 0 880.94 734.12" fill="#fbf9fb"/><rect x="880.9411764705882" y="685.1764705882352" width="48.94117647058823" height="48.94117647058823" fill="#ffffff"/><path d="M 880.94 709.65 A 24.47 24.47 0 0 1  905.4100000000001 685.18 L 880.94 709.65 A 24.47 24.47 0 0 0 905.4100000000001 685.18" fill="#c0aae6"/><path d="M 905.41 685.18 A 24.47 24.47 0 0 1  929.88 709.65 L 905.41 685.18 A 24.47 24.47 0 0 0 929.88 709.65" fill="#fcfafc"/><path d="M 880.94 709.65 A 24.47 24.47 0 0 1  905.4100000000001 734.12 L 880.94 709.65 A 24.47 24.47 0 0 0 905.4100000000001 734.12" fill="#c8b5e9"/><path d="M 905.41 709.65 A 24.47 24.47 0 0 1  929.88 734.12 L 905.41 709.65 A 24.47 24.47 0 0 0 929.88 734.12" fill="#f6f3fb"/><rect x="929.8823529411764" y="685.1764705882352" width="48.94117647058823" height="48.94117647058823" fill="#ffffff"/><path d="M 929.88 709.65 A 24.47 24.47 0 0 1  954.35 685.18 L 929.88 709.65 A 24.47 24.47 0 0 0 954.35 685.18" fill="#fbf9fc"/><path d="M 954.35 709.65 A 24.47 24.47 0 0 1  978.82 685.18 L 954.35 709.65 A 24.47 24.47 0 0 0 978.82 685.18" fill="#ffffff"/><path d="M 929.88 709.65 A 24.47 24.47 0 0 1  954.35 734.12 L 929.88 709.65 A 24.47 24.47 0 0 0 954.35 734.12" fill="#ffffff"/><path d="M 954.35 734.12 A 24.47 24.47 0 0 1  978.82 709.65 L 954.35 734.12 A 24.47 24.47 0 0 0 978.82 709.65" fill="#cdbbeb"/><path d="M 0 734.12 A 48.94 48.94 0 0 1  48.94 783.06 L 0 734.12 A 48.94 48.94 0 0 0 48.94 783.06" fill="#c3aee7"/><path d="M 48.94 783.06 A 48.94 48.94 0 0 1  97.88 734.12 L 48.94 783.06 A 48.94 48.94 0 0 0 97.88 734.12" fill="#f9f6fa"/><path d="M 97.88 734.12 A 48.94 48.94 0 0 1  146.82 783.06 L 97.88 734.12 A 48.94 48.94 0 0 0 146.82 783.06" fill="#ebe4f7"/><path d="M 146.82 783.06 A 48.94 48.94 0 0 1  195.76 734.12 L 146.82 783.06 A 48.94 48.94 0 0 0 195.76 734.12" fill="#fefdfe"/><rect x="195.76470588235293" y="734.1176470588234" width="48.94117647058823" height="48.94117647058823" fill="#ffffff"/><path d="M 195.76 758.59 A 24.47 24.47 0 0 1  220.23 734.12 L 195.76 758.59 A 24.47 24.47 0 0 0 220.23 734.12" fill="#faf8fb"/><path d="M 220.24 734.12 A 24.47 24.47 0 0 1  244.71 758.59 L 220.24 734.12 A 24.47 24.47 0 0 0 244.71 758.59" fill="#e9e1f6"/><path d="M 195.76 758.59 A 24.47 24.47 0 0 1  220.23 783.0600000000001 L 195.76 758.59 A 24.47 24.47 0 0 0 220.23 783.0600000000001" fill="#c9b6e9"/><path d="M 220.24 783.0600000000001 A 24.47 24.47 0 0 1  244.71 758.59 L 220.24 783.0600000000001 A 24.47 24.47 0 0 0 244.71 758.59" fill="#faf9fd"/><path d="M 244.71 734.12 A 48.94 48.94 0 0 1  293.65 783.06 L 244.71 734.12 A 48.94 48.94 0 0 0 293.65 783.06" fill="#fefdfe"/><path d="M 293.65 783.06 A 48.94 48.94 0 0 1  342.59 734.12 L 293.65 783.06 A 48.94 48.94 0 0 0 342.59 734.12" fill="#eee8f8"/><rect x="342.5882352941176" y="734.1176470588234" width="48.94117647058823" height="48.94117647058823" fill="#ffffff"/><path d="M 342.59 734.12 A 24.47 24.47 0 0 1  367.05999999999995 758.59 L 342.59 734.12 A 24.47 24.47 0 0 0 367.05999999999995 758.59" fill="#f9f6fa"/><path d="M 367.06 734.12 A 24.47 24.47 0 0 1  391.53 758.59 L 367.06 734.12 A 24.47 24.47 0 0 0 391.53 758.59" fill="#c4afe7"/><path d="M 342.59 758.59 A 24.47 24.47 0 0 1  367.05999999999995 783.0600000000001 L 342.59 758.59 A 24.47 24.47 0 0 0 367.05999999999995 783.0600000000001" fill="#fbf8fb"/><path d="M 367.06 783.0600000000001 A 24.47 24.47 0 0 1  391.53 758.59 L 367.06 783.0600000000001 A 24.47 24.47 0 0 0 391.53 758.59" fill="#f9f5fa"/><path d="M 391.53 734.12 A 48.94 48.94 0 0 1  440.46999999999997 783.06 L 391.53 734.12 A 48.94 48.94 0 0 0 440.46999999999997 783.06" fill="#fbf9fd"/><path d="M 440.47 734.12 A 48.94 48.94 0 0 1  489.41 783.06 L 440.47 734.12 A 48.94 48.94 0 0 0 489.41 783.06" fill="#f8f4f9"/><path d="M 489.41 734.12 A 48.94 48.94 0 0 1  538.35 783.06 L 489.41 734.12 A 48.94 48.94 0 0 0 538.35 783.06" fill="#fbfafd"/><rect x="538.3529411764705" y="734.1176470588234" width="48.94117647058823" height="48.94117647058823" fill="#ffffff"/><path d="M 538.35 758.59 A 24.47 24.47 0 0 1  562.82 734.12 L 538.35 758.59 A 24.47 24.47 0 0 0 562.82 734.12" fill="#efe9f9"/><path d="M 562.82 734.12 A 24.47 24.47 0 0 1  587.2900000000001 758.59 L 562.82 734.12 A 24.47 24.47 0 0 0 587.2900000000001 758.59" fill="#fffeff"/><path d="M 538.35 783.0600000000001 A 24.47 24.47 0 0 1  562.82 758.59 L 538.35 783.0600000000001 A 24.47 24.47 0 0 0 562.82 758.59" fill="#f4f1fb"/><path d="M 562.82 758.59 A 24.47 24.47 0 0 1  587.2900000000001 783.0600000000001 L 562.82 758.59 A 24.47 24.47 0 0 0 587.2900000000001 783.0600000000001" fill="#f9f6fa"/><rect x="587.2941176470588" y="734.1176470588234" width="48.94117647058823" height="48.94117647058823" fill="#ffffff"/><path d="M 587.29 734.12 A 24.47 24.47 0 0 1  611.76 758.59 L 587.29 734.12 A 24.47 24.47 0 0 0 611.76 758.59" fill="#c6b2e8"/><path d="M 611.76 758.59 A 24.47 24.47 0 0 1  636.23 734.12 L 611.76 758.59 A 24.47 24.47 0 0 0 636.23 734.12" fill="#fefeff"/><path d="M 587.29 758.59 A 24.47 24.47 0 0 1  611.76 783.0600000000001 L 587.29 758.59 A 24.47 24.47 0 0 0 611.76 783.0600000000001" fill="#f9f6fa"/><path d="M 611.76 783.0600000000001 A 24.47 24.47 0 0 1  636.23 758.59 L 611.76 783.0600000000001 A 24.47 24.47 0 0 0 636.23 758.59" fill="#cab7ea"/><rect x="636.2352941176471" y="734.1176470588234" width="48.94117647058823" height="48.94117647058823" fill="#ffffff"/><path d="M 636.24 758.59 A 24.47 24.47 0 0 1  660.71 734.12 L 636.24 758.59 A 24.47 24.47 0 0 0 660.71 734.12" fill="#c0a9e6"/><path d="M 660.71 734.12 A 24.47 24.47 0 0 1  685.1800000000001 758.59 L 660.71 734.12 A 24.47 24.47 0 0 0 685.1800000000001 758.59" fill="#fbf8fb"/><path d="M 636.24 758.59 A 24.47 24.47 0 0 1  660.71 783.0600000000001 L 636.24 758.59 A 24.47 24.47 0 0 0 660.71 783.0600000000001" fill="#d4c5ee"/><path d="M 660.71 783.0600000000001 A 24.47 24.47 0 0 1  685.1800000000001 758.59 L 660.71 783.0600000000001 A 24.47 24.47 0 0 0 685.1800000000001 758.59" fill="#e7def5"/><rect x="685.1764705882352" y="734.1176470588234" width="48.94117647058823" height="48.94117647058823" fill="#ffffff"/><path d="M 685.18 734.12 A 24.47 24.47 0 0 1  709.65 758.59 L 685.18 734.12 A 24.47 24.47 0 0 0 709.65 758.59" fill="#fbf9fc"/><path d="M 709.65 734.12 A 24.47 24.47 0 0 1  734.12 758.59 L 709.65 734.12 A 24.47 24.47 0 0 0 734.12 758.59" fill="#fdfdfe"/><path d="M 685.18 758.59 A 24.47 24.47 0 0 1  709.65 783.0600000000001 L 685.18 758.59 A 24.47 24.47 0 0 0 709.65 783.0600000000001" fill="#fefeff"/><path d="M 709.65 783.0600000000001 A 24.47 24.47 0 0 1  734.12 758.59 L 709.65 783.0600000000001 A 24.47 24.47 0 0 0 734.12 758.59" fill="#e6ddf5"/><path d="M 734.12 783.06 A 48.94 48.94 0 0 1  783.06 734.12 L 734.12 783.06 A 48.94 48.94 0 0 0 783.06 734.12" fill="#f1ecf9"/><path d="M 783.06 783.06 A 48.94 48.94 0 0 1  832 734.12 L 783.06 783.06 A 48.94 48.94 0 0 0 832 734.12" fill="#ede7f8"/><rect x="832" y="734.1176470588234" width="48.94117647058823" height="48.94117647058823" fill="#ffffff"/><path d="M 832 734.12 A 24.47 24.47 0 0 1  856.47 758.59 L 832 734.12 A 24.47 24.47 0 0 0 856.47 758.59" fill="#ded3f2"/><path d="M 856.47 734.12 A 24.47 24.47 0 0 1  880.94 758.59 L 856.47 734.12 A 24.47 24.47 0 0 0 880.94 758.59" fill="#fcfbfd"/><path d="M 832 783.0600000000001 A 24.47 24.47 0 0 1  856.47 758.59 L 832 783.0600000000001 A 24.47 24.47 0 0 0 856.47 758.59" fill="#fdfcfd"/><path d="M 856.47 783.0600000000001 A 24.47 24.47 0 0 1  880.94 758.59 L 856.47 783.0600000000001 A 24.47 24.47 0 0 0 880.94 758.59" fill="#ffffff"/><rect x="880.9411764705882" y="734.1176470588234" width="48.94117647058823" height="48.94117647058823" fill="#ffffff"/><path d="M 880.94 734.12 A 24.47 24.47 0 0 1  905.4100000000001 758.59 L 880.94 734.12 A 24.47 24.47 0 0 0 905.4100000000001 758.59" fill="#c1abe6"/><path d="M 905.41 734.12 A 24.47 24.47 0 0 1  929.88 758.59 L 905.41 734.12 A 24.47 24.47 0 0 0 929.88 758.59" fill="#faf8fd"/><path d="M 880.94 758.59 A 24.47 24.47 0 0 1  905.4100000000001 783.0600000000001 L 880.94 758.59 A 24.47 24.47 0 0 0 905.4100000000001 783.0600000000001" fill="#c8b4e9"/><path d="M 905.41 758.59 A 24.47 24.47 0 0 1  929.88 783.0600000000001 L 905.41 758.59 A 24.47 24.47 0 0 0 929.88 783.0600000000001" fill="#e5dcf5"/><rect x="929.8823529411764" y="734.1176470588234" width="48.94117647058823" height="48.94117647058823" fill="#ffffff"/><path d="M 929.88 758.59 A 24.47 24.47 0 0 1  954.35 734.12 L 929.88 758.59 A 24.47 24.47 0 0 0 954.35 734.12" fill="#e6ddf5"/><path d="M 954.35 758.59 A 24.47 24.47 0 0 1  978.82 734.12 L 954.35 758.59 A 24.47 24.47 0 0 0 978.82 734.12" fill="#fdfdfe"/><path d="M 929.88 783.0600000000001 A 24.47 24.47 0 0 1  954.35 758.59 L 929.88 783.0600000000001 A 24.47 24.47 0 0 0 954.35 758.59" fill="#fcfafc"/><path d="M 954.35 783.0600000000001 A 24.47 24.47 0 0 1  978.82 758.59 L 954.35 783.0600000000001 A 24.47 24.47 0 0 0 978.82 758.59" fill="#fcfbfd"/><rect x="0" y="783.0588235294117" width="48.94117647058823" height="48.94117647058823" fill="#ffffff"/><path d="M 0 783.06 A 24.47 24.47 0 0 1  24.47 807.53 L 0 783.06 A 24.47 24.47 0 0 0 24.47 807.53" fill="#ffffff"/><path d="M 24.47 783.06 A 24.47 24.47 0 0 1  48.94 807.53 L 24.47 783.06 A 24.47 24.47 0 0 0 48.94 807.53" fill="#f9f6fa"/><path d="M 0 832 A 24.47 24.47 0 0 1  24.47 807.53 L 0 832 A 24.47 24.47 0 0 0 24.47 807.53" fill="#fefefe"/><path d="M 24.47 832 A 24.47 24.47 0 0 1  48.94 807.53 L 24.47 832 A 24.47 24.47 0 0 0 48.94 807.53" fill="#f9f6fa"/><rect x="48.94117647058823" y="783.0588235294117" width="48.94117647058823" height="48.94117647058823" fill="#ffffff"/><path d="M 48.94 807.53 A 24.47 24.47 0 0 1  73.41 783.06 L 48.94 807.53 A 24.47 24.47 0 0 0 73.41 783.06" fill="#fbf8fb"/><path d="M 73.41 783.06 A 24.47 24.47 0 0 1  97.88 807.53 L 73.41 783.06 A 24.47 24.47 0 0 0 97.88 807.53" fill="#f2eefa"/><path d="M 48.94 832 A 24.47 24.47 0 0 1  73.41 807.53 L 48.94 832 A 24.47 24.47 0 0 0 73.41 807.53" fill="#fdfcfd"/><path d="M 73.41 807.53 A 24.47 24.47 0 0 1  97.88 832 L 73.41 807.53 A 24.47 24.47 0 0 0 97.88 832" fill="#c6b2e8"/><path d="M 97.88 832 A 48.94 48.94 0 0 1  146.82 783.06 L 97.88 832 A 48.94 48.94 0 0 0 146.82 783.06" fill="#fefeff"/><rect x="146.8235294117647" y="783.0588235294117" width="48.94117647058823" height="48.94117647058823" fill="#ffffff"/><path d="M 146.82 807.53 A 24.47 24.47 0 0 1  171.29 783.06 L 146.82 807.53 A 24.47 24.47 0 0 0 171.29 783.06" fill="#fcfafc"/><path d="M 171.29 783.06 A 24.47 24.47 0 0 1  195.76 807.53 L 171.29 783.06 A 24.47 24.47 0 0 0 195.76 807.53" fill="#fbf8fb"/><path d="M 146.82 807.53 A 24.47 24.47 0 0 1  171.29 832 L 146.82 807.53 A 24.47 24.47 0 0 0 171.29 832" fill="#fcfbfd"/><path d="M 171.29 832 A 24.47 24.47 0 0 1  195.76 807.53 L 171.29 832 A 24.47 24.47 0 0 0 195.76 807.53" fill="#ded3f2"/><rect x="195.76470588235293" y="783.0588235294117" width="48.94117647058823" height="48.94117647058823" fill="#ffffff"/><path d="M 195.76 807.53 A 24.47 24.47 0 0 1  220.23 783.06 L 195.76 807.53 A 24.47 24.47 0 0 0 220.23 783.06" fill="#c0aae6"/><path d="M 220.24 807.53 A 24.47 24.47 0 0 1  244.71 783.06 L 220.24 807.53 A 24.47 24.47 0 0 0 244.71 783.06" fill="#faf7fb"/><path d="M 195.76 807.53 A 24.47 24.47 0 0 1  220.23 832 L 195.76 807.53 A 24.47 24.47 0 0 0 220.23 832" fill="#f9f6fa"/><path d="M 220.24 807.53 A 24.47 24.47 0 0 1  244.71 832 L 220.24 807.53 A 24.47 24.47 0 0 0 244.71 832" fill="#e4daf4"/><path d="M 244.71 783.06 A 48.94 48.94 0 0 1  293.65 832 L 244.71 783.06 A 48.94 48.94 0 0 0 293.65 832" fill="#cbb9ea"/><rect x="293.6470588235294" y="783.0588235294117" width="48.94117647058823" height="48.94117647058823" fill="#ffffff"/><path d="M 293.65 807.53 A 24.47 24.47 0 0 1  318.12 783.06 L 293.65 807.53 A 24.47 24.47 0 0 0 318.12 783.06" fill="#f1ecf9"/><path d="M 318.12 807.53 A 24.47 24.47 0 0 1  342.59000000000003 783.06 L 318.12 807.53 A 24.47 24.47 0 0 0 342.59000000000003 783.06" fill="#cab8ea"/><path d="M 293.65 807.53 A 24.47 24.47 0 0 1  318.12 832 L 293.65 807.53 A 24.47 24.47 0 0 0 318.12 832" fill="#f8f5fc"/><path d="M 318.12 832 A 24.47 24.47 0 0 1  342.59000000000003 807.53 L 318.12 832 A 24.47 24.47 0 0 0 342.59000000000003 807.53" fill="#f2edfa"/><rect x="342.5882352941176" y="783.0588235294117" width="48.94117647058823" height="48.94117647058823" fill="#ffffff"/><path d="M 342.59 783.06 A 24.47 24.47 0 0 1  367.05999999999995 807.53 L 342.59 783.06 A 24.47 24.47 0 0 0 367.05999999999995 807.53" fill="#f4f0fb"/><path d="M 367.06 783.06 A 24.47 24.47 0 0 1  391.53 807.53 L 367.06 783.06 A 24.47 24.47 0 0 0 391.53 807.53" fill="#dacef0"/><path d="M 342.59 832 A 24.47 24.47 0 0 1  367.05999999999995 807.53 L 342.59 832 A 24.47 24.47 0 0 0 367.05999999999995 807.53" fill="#fffeff"/><path d="M 367.06 807.53 A 24.47 24.47 0 0 1  391.53 832 L 367.06 807.53 A 24.47 24.47 0 0 0 391.53 832" fill="#e0d5f3"/><rect x="391.52941176470586" y="783.0588235294117" width="48.94117647058823" height="48.94117647058823" fill="#ffffff"/><path d="M 391.53 807.53 A 24.47 24.47 0 0 1  416 783.06 L 391.53 807.53 A 24.47 24.47 0 0 0 416 783.06" fill="#ccbaeb"/><path d="M 416 807.53 A 24.47 24.47 0 0 1  440.47 783.06 L 416 807.53 A 24.47 24.47 0 0 0 440.47 783.06" fill="#ece5f7"/><path d="M 391.53 807.53 A 24.47 24.47 0 0 1  416 832 L 391.53 807.53 A 24.47 24.47 0 0 0 416 832" fill="#fbf9fc"/><path d="M 416 832 A 24.47 24.47 0 0 1  440.47 807.53 L 416 832 A 24.47 24.47 0 0 0 440.47 807.53" fill="#faf7fa"/><path d="M 440.47 832 A 48.94 48.94 0 0 1  489.41 783.06 L 440.47 832 A 48.94 48.94 0 0 0 489.41 783.06" fill="#f1ecf9"/><rect x="489.4117647058823" y="783.0588235294117" width="48.94117647058823" height="48.94117647058823" fill="#ffffff"/><path d="M 489.41 783.06 A 24.47 24.47 0 0 1  513.88 807.53 L 489.41 783.06 A 24.47 24.47 0 0 0 513.88 807.53" fill="#fefdfe"/><path d="M 513.88 783.06 A 24.47 24.47 0 0 1  538.35 807.53 L 513.88 783.06 A 24.47 24.47 0 0 0 538.35 807.53" fill="#fdfbfd"/><path d="M 489.41 807.53 A 24.47 24.47 0 0 1  513.88 832 L 489.41 807.53 A 24.47 24.47 0 0 0 513.88 832" fill="#c8b5e9"/><path d="M 513.88 832 A 24.47 24.47 0 0 1  538.35 807.53 L 513.88 832 A 24.47 24.47 0 0 0 538.35 807.53" fill="#ffffff"/><rect x="538.3529411764705" y="783.0588235294117" width="48.94117647058823" height="48.94117647058823" fill="#ffffff"/><path d="M 538.35 783.06 A 24.47 24.47 0 0 1  562.82 807.53 L 538.35 783.06 A 24.47 24.47 0 0 0 562.82 807.53" fill="#c9b5e9"/><path d="M 562.82 807.53 A 24.47 24.47 0 0 1  587.2900000000001 783.06 L 562.82 807.53 A 24.47 24.47 0 0 0 587.2900000000001 783.06" fill="#ffffff"/><path d="M 538.35 832 A 24.47 24.47 0 0 1  562.82 807.53 L 538.35 832 A 24.47 24.47 0 0 0 562.82 807.53" fill="#fefdfe"/><path d="M 562.82 832 A 24.47 24.47 0 0 1  587.2900000000001 807.53 L 562.82 832 A 24.47 24.47 0 0 0 587.2900000000001 807.53" fill="#d4c5ee"/><path d="M 587.29 832 A 48.94 48.94 0 0 1  636.23 783.06 L 587.29 832 A 48.94 48.94 0 0 0 636.23 783.06" fill="#f9f6fa"/><rect x="636.2352941176471" y="783.0588235294117" width="48.94117647058823" height="48.94117647058823" fill="#ffffff"/><path d="M 636.24 783.06 A 24.47 24.47 0 0 1  660.71 807.53 L 636.24 783.06 A 24.47 24.47 0 0 0 660.71 807.53" fill="#faf6fa"/><path d="M 660.71 783.06 A 24.47 24.47 0 0 1  685.1800000000001 807.53 L 660.71 783.06 A 24.47 24.47 0 0 0 685.1800000000001 807.53" fill="#fbf9fc"/><path d="M 636.24 832 A 24.47 24.47 0 0 1  660.71 807.53 L 636.24 832 A 24.47 24.47 0 0 0 660.71 807.53" fill="#faf8fb"/><path d="M 660.71 832 A 24.47 24.47 0 0 1  685.1800000000001 807.53 L 660.71 832 A 24.47 24.47 0 0 0 685.1800000000001 807.53" fill="#eee8f8"/><path d="M 685.18 783.06 A 48.94 48.94 0 0 1  734.1199999999999 832 L 685.18 783.06 A 48.94 48.94 0 0 0 734.1199999999999 832" fill="#c0aae6"/><path d="M 734.12 832 A 48.94 48.94 0 0 1  783.06 783.06 L 734.12 832 A 48.94 48.94 0 0 0 783.06 783.06" fill="#fefdfe"/><rect x="783.0588235294117" y="783.0588235294117" width="48.94117647058823" height="48.94117647058823" fill="#ffffff"/><path d="M 783.06 807.53 A 24.47 24.47 0 0 1  807.53 783.06 L 783.06 807.53 A 24.47 24.47 0 0 0 807.53 783.06" fill="#ffffff"/><path d="M 807.53 783.06 A 24.47 24.47 0 0 1  832 807.53 L 807.53 783.06 A 24.47 24.47 0 0 0 832 807.53" fill="#ffffff"/><path d="M 783.06 832 A 24.47 24.47 0 0 1  807.53 807.53 L 783.06 832 A 24.47 24.47 0 0 0 807.53 807.53" fill="#faf6fa"/><path d="M 807.53 807.53 A 24.47 24.47 0 0 1  832 832 L 807.53 807.53 A 24.47 24.47 0 0 0 832 832" fill="#fdfdfe"/><path d="M 832 832 A 48.94 48.94 0 0 1  880.94 783.06 L 832 832 A 48.94 48.94 0 0 0 880.94 783.06" fill="#f2edfa"/><rect x="880.9411764705882" y="783.0588235294117" width="48.94117647058823" height="48.94117647058823" fill="#ffffff"/><path d="M 880.94 807.53 A 24.47 24.47 0 0 1  905.4100000000001 783.06 L 880.94 807.53 A 24.47 24.47 0 0 0 905.4100000000001 783.06" fill="#d5c6ee"/><path d="M 905.41 783.06 A 24.47 24.47 0 0 1  929.88 807.53 L 905.41 783.06 A 24.47 24.47 0 0 0 929.88 807.53" fill="#e2d7f3"/><path d="M 880.94 832 A 24.47 24.47 0 0 1  905.4100000000001 807.53 L 880.94 832 A 24.47 24.47 0 0 0 905.4100000000001 807.53" fill="#fdfcfd"/><path d="M 905.41 832 A 24.47 24.47 0 0 1  929.88 807.53 L 905.41 832 A 24.47 24.47 0 0 0 929.88 807.53" fill="#dbcef1"/><rect x="929.8823529411764" y="783.0588235294117" width="48.94117647058823" height="48.94117647058823" fill="#ffffff"/><path d="M 929.88 783.06 A 24.47 24.47 0 0 1  954.35 807.53 L 929.88 783.06 A 24.47 24.47 0 0 0 954.35 807.53" fill="#f8f5f9"/><path d="M 954.35 783.06 A 24.47 24.47 0 0 1  978.82 807.53 L 954.35 783.06 A 24.47 24.47 0 0 0 978.82 807.53" fill="#fefefe"/><path d="M 929.88 807.53 A 24.47 24.47 0 0 1  954.35 832 L 929.88 807.53 A 24.47 24.47 0 0 0 954.35 832" fill="#ffffff"/><path d="M 954.35 807.53 A 24.47 24.47 0 0 1  978.82 832 L 954.35 807.53 A 24.47 24.47 0 0 0 978.82 832" fill="#dacdf0"/></g></svg>